<svg width="14" height="14" viewBox="0 0 14 14" fill="none" xmlns="http://www.w3.org/2000/svg"><path d="M7 13A6 6 0 1 0 7 1a6 6 0 0 0 0 12Z" fill="#96A3B4" stroke="#96A3B4" stroke-width="2"/><path d="M10 7a3 3 0 1 0-6 0 3 3 0 0 0 6 0Z" stroke="#96A3B4" stroke-width="6" stroke-dasharray="18.85 100"/><path d="m6.997 7.68-2.18 2.18a.44.44 0 0 1-.332.14.48.48 0 0 1-.332-.153.465.465 0 0 1 0-.678L6.32 7.003l-2.18-2.18A.44.44 0 0 1 4 4.486a.5.5 0 0 1 .153-.339.465.465 0 0 1 .678 0l2.166 2.18 2.18-2.18a.465.465 0 0 1 .677 0 .465.465 0 0 1 0 .678l-2.18 2.18 2.18 2.178a.46.46 0 0 1 .146.333.46.46 0 0 1-.146.332.465.465 0 0 1-.678 0z" fill="#E8EAED"/></svg>