<svg width="16" height="16" viewBox="0 0 16 16" fill="none" xmlns="http://www.w3.org/2000/svg"><path opacity=".9" d="M4.5 7.344H2.75a.44.44 0 0 0-.437.437v.438c0 .241.195.437.437.437H4.5a.44.44 0 0 0 .438-.437V7.78a.44.44 0 0 0-.438-.437m4.375.001h-1.75a.44.44 0 0 0-.437.437v.438c0 .241.195.437.437.437h1.75a.44.44 0 0 0 .438-.437V7.78a.44.44 0 0 0-.438-.437m4.375.001H11.5a.44.44 0 0 0-.437.437v.438c0 .241.195.437.437.437h1.75a.44.44 0 0 0 .438-.437V7.78a.44.44 0 0 0-.438-.437" fill="#5E5E5F"/></svg>
